<svg xmlns="http://www.w3.org/2000/svg" viewBox="0 0 120 72">
  <g fill="none" stroke="#0c6ff2" stroke-linecap="round" stroke-linejoin="round" shape-rendering="geometricPrecision">
    <path stroke-width="3.4" d="M109 36 L108.58 32.38 L107.33 29 L105.27 26.1 L102.44 23.88 L98.87 22.48 L94.65 22 L89.83 22.48 L84.5 23.88 L78.75 26.1 L72.68 29 L66.4 32.38 L60 36 L53.6 39.62 L47.32 43 L41.25 45.9 L35.5 48.12 L30.17 49.52 L25.35 50 L21.13 49.52 L17.56 48.12 L14.73 45.9 L12.67 43 L11.42 39.62 L11 36 L11.42 32.38 L12.67 29 L14.73 26.1 L17.56 23.88 L21.13 22.48 L25.35 22 L30.17 22.48 L35.5 23.88 L41.25 26.1 L47.32 29 L53.6 32.38 L60 36 L66.4 39.62 L72.68 43 L78.75 45.9 L84.5 48.12 L89.83 49.52 L94.65 50 L98.87 49.52 L102.44 48.12 L105.27 45.9 L107.33 43 L108.58 39.62 L109 36 Z"/>
    <path stroke-width="2.7" d="M100 36 L99.66 33.28 L98.64 30.75 L96.96 28.58 L94.64 26.91 L91.73 25.86 L88.28 25.5 L84.35 25.86 L80 26.91 L75.31 28.58 L70.35 30.75 L65.22 33.28 L60 36 L54.78 38.72 L49.65 41.25 L44.69 43.42 L40 45.09 L35.65 46.14 L31.72 46.5 L28.27 46.14 L25.36 45.09 L23.04 43.42 L21.36 41.25 L20.34 38.72 L20 36 L20.34 33.28 L21.36 30.75 L23.04 28.58 L25.36 26.91 L28.27 25.86 L31.72 25.5 L35.65 25.86 L40 26.91 L44.69 28.58 L49.65 30.75 L54.78 33.28 L60 36 L65.22 38.72 L70.35 41.25 L75.31 43.42 L80 45.09 L84.35 46.14 L88.28 46.5 L91.73 46.14 L94.64 45.09 L96.96 43.42 L98.64 41.25 L99.66 38.72 L100 36 Z"/>
    <path stroke-width="2.1" d="M91 36 L90.73 34.19 L89.94 32.5 L88.64 31.05 L86.85 29.94 L84.59 29.24 L81.92 29 L78.87 29.24 L75.5 29.94 L71.86 31.05 L68.02 32.5 L64.05 34.19 L60 36 L55.95 37.81 L51.98 39.5 L48.14 40.95 L44.5 42.06 L41.13 42.76 L38.08 43 L35.41 42.76 L33.15 42.06 L31.36 40.95 L30.06 39.5 L29.27 37.81 L29 36 L29.27 34.19 L30.06 32.5 L31.36 31.05 L33.15 29.94 L35.41 29.24 L38.08 29 L41.13 29.24 L44.5 29.94 L48.14 31.05 L51.98 32.5 L55.95 34.19 L60 36 L64.05 37.81 L68.02 39.5 L71.86 40.95 L75.5 42.06 L78.87 42.76 L81.92 43 L84.59 42.76 L86.85 42.06 L88.64 40.95 L89.94 39.5 L90.73 37.81 L91 36 Z"/>
  </g>
</svg>
